<?xml version="1.0" encoding="utf-8"?>
<!-- Generator: Adobe Illustrator 22.1.0, SVG Export Plug-In . SVG Version: 6.00 Build 0)  -->
<svg version="1.1" id="Layer_1" xmlns="http://www.w3.org/2000/svg" xmlns:xlink="http://www.w3.org/1999/xlink" x="0px" y="0px"
	 viewBox="0 0 433.9 448" style="enable-background:new 0 0 433.9 448;" xml:space="preserve">
<path d="M250.2,130.7c-48.7,1.8-169.5,15.5-169.5,117.5c0,109.5,138.3,114,183.5,43.2c6.5,10.2,35.4,37.5,45.3,46.8l56.8-56
	c0,0-32.3-25.3-32.3-52.8V82.3C334,57,309.5,0,221.7,0C133.7,0,87,55,87,104.3l73.5,6.8c16.3-49.5,54.2-49.5,54.2-49.5
	C255.4,61.5,250.2,91.4,250.2,130.7L250.2,130.7z M250.2,217.5c0,80-84.2,68-84.2,17.2c0-47.2,50.5-56.7,84.2-57.8V217.5z
	 M386.2,381c-7.7,10-70,67-174.5,67S27.2,376.5,2.7,347c-6.8-7.7,1-11.3,5.5-8.3C81.5,383.2,196,456.5,380.7,369
	C388.2,365.3,394,371,386.2,381z M426,383.2c-6.5,15.8-16,26.8-21.2,31c-5.5,4.5-9.5,2.7-6.5-3.8s19.3-46.5,12.7-55
	c-6.5-8.3-37-4.3-48-3.2c-10.8,1-13,2-14-0.3c-2.3-5.7,21.7-15.5,37.5-17.5c15.7-1.8,41-0.8,46,5.7
	C436.2,345.2,432.5,367.2,426,383.2L426,383.2z"/>
</svg>
