<?xml version="1.0" encoding="utf-8"?>
<!-- Generator: Adobe Illustrator 22.1.0, SVG Export Plug-In . SVG Version: 6.00 Build 0)  -->
<svg version="1.1" id="Layer_1" xmlns="http://www.w3.org/2000/svg" xmlns:xlink="http://www.w3.org/1999/xlink" x="0px" y="0px"
	 viewBox="0 0 376.4 447.9" style="enable-background:new 0 0 376.4 447.9;" xml:space="preserve">
<path d="M314.7,236.7c-0.2-36.7,16.4-64.4,50-84.8c-18.8-26.9-47.2-41.7-84.7-44.6c-35.5-2.8-74.3,20.7-88.5,20.7
	c-15,0-49.4-19.7-76.4-19.7C59.3,109.2,0,152.8,0,241.5c0,26.2,4.8,53.3,14.4,81.2c12.8,36.7,59,126.7,107.2,125.2
	c25.2-0.6,43-17.9,75.8-17.9c31.8,0,48.3,17.9,76.4,17.9c48.6-0.7,90.4-82.5,102.6-119.3C311.2,297.9,314.7,238.6,314.7,236.7
	L314.7,236.7z M258.1,72.5c27.3-32.4,24.8-61.9,24-72.5c-24.1,1.4-52,16.4-67.9,34.9c-17.5,19.8-27.8,44.3-25.6,71.9
	C214.7,108.8,238.5,95.4,258.1,72.5z"/>
</svg>
