<?xml version="1.0" encoding="utf-8"?>
<!-- Generator: Adobe Illustrator 22.1.0, SVG Export Plug-In . SVG Version: 6.00 Build 0)  -->
<svg version="1.1" id="Layer_1" xmlns="http://www.w3.org/2000/svg" xmlns:xlink="http://www.w3.org/1999/xlink" x="0px" y="0px"
	 viewBox="0 0 448 448" style="enable-background:new 0 0 448 448;" xml:space="preserve">
<path d="M350.5,256.7c0,5.4,1.6,14.4-6.2,14.4c-1.6,0-3-0.8-3.8-2.4c-2.2-5.1-1.1-44.1-1.1-44.7c0-3.8-1.1-12.7,4.9-12.7
	c7.3,0,6.2,7.3,6.2,12.7V256.7z M265,197.9c0-9.7,1.6-16-10.3-16v83.7c12.2,0.3,10.3-8.7,10.3-18.4V197.9L265,197.9z M448,48v352
	c0,26.5-21.5,48-48,48H48c-26.5,0-48-21.5-48-48V48C0,21.5,21.5,0,48,0h352C426.5,0,448,21.5,448,48z M21.3,196.8
	c-0.1,0.1-0.2,0.3-0.3,0.4h0.3V196.8z M97,160H64v127.8h33V160z M210.3,160h-43.1l-7.6,59.9c-2.7-20-5.4-40.1-8.7-59.9h-42.8v127.8
	h29v-84.5l12.2,84.5h20.6l11.6-86.4v86.4h28.7L210.3,160L210.3,160z M296.6,205.3c0-8.1,0.3-16.8-1.4-24.4
	c-4.3-22.5-31.4-20.9-49-20.9h-24.6v127.8C307.7,287.9,296.6,293.8,296.6,205.3L296.6,205.3z M382.5,222.6
	c0-17.3-0.8-30.1-22.2-30.1c-8.9,0-14.9,2.7-20.9,9.2V160h-31.7v127.8h29.8l1.9-8.1c5.7,6.8,11.9,9.8,20.9,9.8
	c19.8,0,22.2-15.2,22.2-30.9L382.5,222.6L382.5,222.6z"/>
</svg>
