<?xml version="1.0" encoding="utf-8"?>
<!-- Generator: Adobe Illustrator 22.1.0, SVG Export Plug-In . SVG Version: 6.00 Build 0)  -->
<svg version="1.1" id="Layer_1" xmlns="http://www.w3.org/2000/svg" xmlns:xlink="http://www.w3.org/1999/xlink" x="0px" y="0px"
	 viewBox="0 0 448 448" style="enable-background:new 0 0 448 448;" xml:space="preserve">
<path d="M223.6,48.3C129,48.3,52.5,125,52.5,219.5S129,390.8,223.6,390.8s171.2-76.7,171.2-171.2C394.8,125,318.1,48.3,223.6,48.3
	L223.6,48.3z M303,288.3c-3.2,13.6-13.5,21.2-27.3,23.8c-12.1,2.2-22.2,2.8-31.9-5c-11.8-10-12-26.4-1.4-36.8
	c8.4-8,20.3-9.6,38-12.8c3-0.5,5.6-1.2,7.7-3.7c3.2-3.6,2.2-2,2.2-80.8c0-5.6-2.7-7.1-8.4-6.1c-4,0.7-91.9,17.1-91.9,17.1
	c-5,1.1-6.7,2.6-6.7,8.3c0,116.1,0.5,110.8-1.2,118.5c-2.1,9-7.6,15.8-14.9,19.6c-8.3,4.6-23.4,6.6-31.4,5.2
	c-21.4-4-28.9-28.7-14.4-42.9c8.4-8,20.3-9.6,38-12.8c3-0.5,5.6-1.2,7.7-3.7c5-5.7,0.9-127,2.6-133.7c0.4-2.6,1.5-4.8,3.5-6.4
	c2.1-1.7,5.8-2.7,6.7-2.7c101-19,113.3-21.4,115.1-21.4c5.7-0.4,9,3,9,8.7C303.9,291.3,304.4,282.1,303,288.3L303,288.3z M345.2,0
	H102.8C45.9,0,0,45.9,0,102.8v242.4C0,402.1,45.9,448,102.8,448h242.4c57,0,102.8-45.9,102.8-102.8V102.8C448,45.9,402.1,0,345.2,0z
	 M223.6,412c-106.3,0-192.5-86.2-192.5-192.5S117.3,27,223.6,27s192.5,86.2,192.5,192.5S329.9,412,223.6,412z"/>
</svg>
