<svg id="Layer_1" data-name="Layer 1" xmlns="http://www.w3.org/2000/svg" viewBox="0 0 1064.78 166.04"><defs><style>.cls-1{fill:#fff;}</style></defs><title>randommifflin</title><path d="M80.61,161.87H47.66V32.07H0V4.17H128.27v27.9H80.61Z"/><path d="M251,161.87H220.29V90.93c0-8.57-.44-23.06-20-23.06-13.61,0-24.15,9.22-24.15,27v67H145.4V4.17h30.75v56h.43c4-9.66,17.14-18.23,33.83-18.23C233.25,42,251,55.35,251,81.05Z"/><path d="M380,127.61c-8.12,28.11-31.4,37.34-51.39,37.34-32.95,0-58.2-15.82-58.2-63.92,0-14,4.83-59.08,56-59.08,23.06,0,54.91,11,54.91,64.35v5.49H301.11c.88,8.79,2.64,28.56,27.46,28.56,8.56,0,17.35-4.4,19.77-12.74Zm-30.31-35.8c-1.75-18.89-13.83-24.6-23.72-24.6-14.49,0-22.18,9.22-23.94,24.6Z"/><path d="M533.93,0c20.86,0,75.77,9,75.77,83s-54.91,83-75.77,83-75.78-9-75.78-83S513.06,0,533.93,0Zm0,138.15c17.79,0,42.82-11,42.82-55.13s-25-55.13-42.82-55.13S491.1,38.88,491.1,83,516.14,138.15,533.93,138.15Z"/><path d="M669.22,161.87H638.47V67H621.56V45h16.91V35.58c0-24.16,13.18-33.38,34.26-33.38,9,0,13.18.22,15.82.44V27.45H680c-10.54,0-10.76,3.3-10.76,13V45h20V67h-20Z"/><path d="M742.36,161.87H711.61V67H694.7V45h16.91V35.58c0-24.16,13.18-33.38,34.26-33.38,9,0,13.18.22,15.81.44V27.45h-8.56c-10.54,0-10.76,3.3-10.76,13V45h20V67h-20Z"/><path d="M811.54,31.19H780.79V2.64h30.75Zm0,13.84V161.87H780.79V45Z"/><path d="M941.56,119.26C940.46,131.34,931,165,888.19,165c-43.93,0-54-33.61-54-58.21,0-37.77,16.47-64.79,56-64.79,18.45,0,48.76,8.35,51.61,44.81H910.59c-1.31-7.69-6.15-19.77-20.42-18.89-19.33,0-24.38,19.33-24.38,33.82,0,12.74.44,38,23.72,38,15.59,0,20.86-14.94,20.86-20.43Z"/><path d="M1063.46,127.61c-8.13,28.11-31.41,37.34-51.4,37.34-32.94,0-58.2-15.82-58.2-63.92,0-14,4.83-59.08,56-59.08,23.06,0,54.91,11,54.91,64.35v5.49H984.61c.88,8.79,2.64,28.56,27.45,28.56,8.57,0,17.36-4.4,19.77-12.74Zm-30.31-35.8c-1.76-18.89-13.84-24.6-23.72-24.6-14.5,0-22.18,9.22-23.94,24.6Z"/><rect class="cls-1" x="636.62" y="134.83" width="175.43" height="29.17"/><path d="M638.88,142.84h10.8c5.68,0,6.72,4.2,6.72,6a5.11,5.11,0,0,1-3.3,5.09c1.75.77,2.7,1.42,2.7,5.41,0,3.12,0,3.89,1,4.25v.57h-4.94a14.22,14.22,0,0,1-.48-4.32c0-2.91-.18-4-3.48-4h-4.61v8.36h-4.37Zm9.61,9.4c2.32,0,3.45-.8,3.45-2.91,0-1.13-.51-2.8-3.13-2.8h-5.56v5.71Z"/><path d="M672.85,161.1c0,1.88.41,2.29.92,2.47v.63h-4.49a7,7,0,0,1-.39-1.88,6.44,6.44,0,0,1-5.11,2.29c-2.38,0-4.82-1.34-4.82-4.61,0-3.09,2-4.67,4.61-5.05l3.74-.57c.66-.09,1.46-.35,1.46-1.25,0-1.75-1.66-1.84-2.73-1.84a2.24,2.24,0,0,0-2.56,2.2h-4c.48-4.85,3.84-5.53,7.08-5.53,2.23,0,6.31.68,6.31,4.58Zm-4.08-4.61a6,6,0,0,1-2.82.87c-1.55.26-2.83.65-2.83,2.38a1.82,1.82,0,0,0,1.93,1.9c1.85,0,3.72-1.19,3.72-3.12Z"/><path d="M690.87,164.2h-4.16v-9.61c0-1.16-.06-3.12-2.71-3.12-1.84,0-3.27,1.25-3.27,3.66v9.07h-4.17V148.38h4v2.31h.06a5.08,5.08,0,0,1,4.76-2.73c3.09,0,5.5,1.81,5.5,5.29Z"/><path d="M709.19,164.2h-4.07v-2h-.06a5,5,0,0,1-4.58,2.41c-4.7,0-6.66-4.16-6.66-8.5,0-5.47,3.09-8.15,6.57-8.15a5.1,5.1,0,0,1,4.58,2.47H705v-7.59h4.16Zm-7.67-3c2.64,0,3.69-2.2,3.69-4.55,0-2.53-.72-5.08-3.57-5.08-2.65,0-3.54,2.35-3.54,4.84C698.1,158.28,698.84,161.19,701.52,161.19Z"/><path d="M720.08,164.61c-4.26,0-8.09-2.61-8.09-8.32s3.83-8.33,8.09-8.33,8.09,2.62,8.09,8.33S724.33,164.61,720.08,164.61Zm0-13.14c-3.22,0-3.81,2.79-3.81,4.82s.59,4.81,3.81,4.81,3.8-2.79,3.8-4.81S723.29,151.47,720.08,151.47Z"/><path d="M753.71,164.2h-4.16v-9.61c0-2.35-1-3.12-2.26-3.12-2.08,0-2.83,1.37-2.83,3.24v9.49H740.3v-9.52c0-1.34,0-3.21-2.5-3.21-2,0-2.58,1.37-2.58,3.09v9.64h-4.17V148.38h4v2.31h.06a4.69,4.69,0,0,1,4.49-2.73,4.51,4.51,0,0,1,4.4,2.53,4.91,4.91,0,0,1,4.22-2.53c3.09,0,5.5,1.81,5.5,5.29Z"/><path d="M761.8,146.5h-4.16v-3.86h4.16Zm0,1.88V164.2h-4.16V148.38Z"/><path d="M769.83,160.78h8.3v3.42H764.45V161l8.12-9.24H765v-3.33h12.81v3.41Z"/><path d="M794.55,159.56a6.85,6.85,0,0,1-7,5.05c-4.46,0-7.88-2.14-7.88-8.65,0-1.9.65-8,7.58-8,3.13,0,7.44,1.49,7.44,8.71v.75H783.87c.12,1.19.36,3.86,3.72,3.86a2.68,2.68,0,0,0,2.68-1.72Zm-4.1-4.85c-.24-2.56-1.88-3.33-3.22-3.33-2,0-3,1.25-3.24,3.33Z"/><path d="M797.47,148.38h4v2.73h.06c.86-1.61,1.81-3.15,4.34-3.15a7.36,7.36,0,0,1,.81.06v4.22a7.78,7.78,0,0,0-1.19-.06c-3.24,0-3.84,2-3.84,3.78v8.24h-4.16Z"/><path d="M811.71,164.2h-4.46v-4.35h4.46Z"/></svg>